<svg width="512" height="512" viewBox="0 0 512 512" fill="none" xmlns="http://www.w3.org/2000/svg">
<path fill-rule="evenodd" clip-rule="evenodd" d="M212.687 235.105H288.423V235.235C289.814 235.149 291.216 235.105 292.628 235.105C330.583 235.105 361.351 266.502 361.351 305.231C361.351 343.96 330.583 375.356 292.628 375.356C291.216 375.356 289.814 375.312 288.423 375.227V375.356H228.89C169.252 378.406 118.45 414.869 94.876 466.372V358.526L94.9454 358.617C94.9003 357.269 94.8776 355.915 94.8776 354.556C94.8776 289.175 147.462 236.062 212.687 235.118V235.105Z" fill="#FF4218"/>
<path fill-rule="evenodd" clip-rule="evenodd" d="M194.818 64H374.703H375.378V64.0033C413.022 64.3729 443.426 95.626 443.426 134.125C443.426 172.624 413.022 203.877 375.378 204.247V204.25H374.703H209.983C149.725 207.332 98.4867 244.528 75.2426 296.882V186.018L75.27 186.054C75.2515 185.189 75.2422 184.321 75.2422 183.451C75.2422 118.069 127.827 64.9559 193.053 64.0128V64H194.818Z" fill="#FF9A26"/>
</svg>
