<svg width="238" height="53" viewBox="0 0 238 53" fill="none" xmlns="http://www.w3.org/2000/svg">
<path fill-rule="evenodd" clip-rule="evenodd" d="M17.9625 22.3615H27.8602V22.3784C28.042 22.3672 28.2253 22.3615 28.4099 22.3615C33.3701 22.3615 37.3911 26.4646 37.3911 31.526C37.3911 36.5875 33.3701 40.6906 28.4099 40.6906C28.2253 40.6906 28.042 40.6849 27.8602 40.6737V40.6906H20.0799C12.286 41.0892 5.64678 45.8545 2.56592 52.5854V38.4911L2.57499 38.5031C2.5691 38.3269 2.56613 38.15 2.56613 37.9723C2.56613 29.4277 9.43826 22.4865 17.9625 22.3632V22.3615Z" fill="#FF4218"/>
<path fill-rule="evenodd" clip-rule="evenodd" d="M15.6272 0H39.1361H39.2243V0.000432964C44.1439 0.0487396 48.1173 4.13315 48.1173 9.16454C48.1173 14.1959 44.1439 18.2803 39.2243 18.3287V18.3291H39.1361H17.6091C9.73403 18.7319 3.03779 23.5929 5.84412e-05 30.4351V15.9463L0.00363811 15.9511C0.0012168 15.838 0 15.7245 0 15.6108C0 7.06618 6.87218 0.124923 15.3965 0.00166732V0H15.6272Z" fill="#FF9A26"/>
<path d="M77.3991 27.0273C77.3991 28.5296 76.185 29.7474 74.6873 29.7474H65.9586V38.8814C65.9586 40.3837 64.7445 41.6015 63.2468 41.6015H60V15.314C60 13.8117 61.2141 12.5938 62.7118 12.5938H78.8292V14.715C78.8292 16.2172 77.615 17.4351 76.1173 17.4351H65.9586V24.9261H77.3991V27.0273Z" fill="#131313"/>
<path d="M87.9657 38.8814C87.9657 40.3837 86.7516 41.6015 85.2539 41.6015H82.2057V22.7651C82.2057 21.2628 83.4198 20.045 84.9175 20.045H87.9657V38.8814ZM81.8681 14.4666C81.8681 13.6033 82.1527 12.8927 82.7221 12.3348C83.3047 11.777 84.0926 11.4981 85.0857 11.4981C86.0656 11.4981 86.8468 11.777 87.4294 12.3348C88.012 12.8927 88.3033 13.6033 88.3033 14.4666C88.3033 15.3432 88.0054 16.0604 87.4096 16.6183C86.8269 17.1761 86.0523 17.455 85.0857 17.455C84.1191 17.455 83.3378 17.1761 82.742 16.6183C82.1594 16.0604 81.8681 15.3432 81.8681 14.4666Z" fill="#131313"/>
<path d="M97.996 20.045L98.1748 22.5353C99.7107 20.6095 101.77 19.6465 104.352 19.6465C106.629 19.6465 108.324 20.3173 109.437 21.6587C110.549 23.0002 111.118 25.0058 111.145 27.6755V41.6015H108.116C106.619 41.6015 105.405 40.3837 105.405 38.8814V27.8149C105.405 26.593 105.14 25.7097 104.61 25.1652C104.08 24.6073 103.2 24.3284 101.968 24.3284C100.353 24.3284 99.1414 25.0191 98.3336 26.4004V38.8814C98.3336 40.3837 97.1195 41.6015 95.6218 41.6015H92.5935V22.7651C92.5935 21.2628 93.8077 20.045 95.3054 20.045H97.996Z" fill="#131313"/>
<path d="M125.406 42C122.254 42 119.685 41.0304 117.699 39.0913C115.726 37.1521 114.74 34.5688 114.74 31.3413V30.7834C114.74 28.6185 115.157 26.6859 115.991 24.9859C116.825 23.2725 118.004 21.9576 119.526 21.0411C121.062 20.1114 122.81 19.6465 124.77 19.6465C127.71 19.6465 130.02 20.5763 131.702 22.4357C133.397 24.2952 134.244 26.9317 134.244 30.3451V31.3359C134.244 32.0871 133.637 32.696 132.888 32.696H120.559C120.745 34.1039 121.301 35.2329 122.228 36.0829C123.168 36.9329 124.353 37.358 125.783 37.358C126.75 37.358 127.625 37.2043 128.407 36.8969C129.984 36.2773 132.007 36.1149 133.135 37.382L133.787 38.115C132.927 39.337 131.761 40.2933 130.292 40.9839C128.822 41.6613 127.193 42 125.406 42ZM124.75 24.3085C123.611 24.3085 122.684 24.6937 121.969 25.464C121.268 26.2344 120.817 27.3368 120.619 28.7712H128.603V28.313C128.577 27.0379 128.233 26.0551 127.571 25.3644C126.908 24.6605 125.968 24.3085 124.75 24.3085Z" fill="#131313"/>
<path d="M165.841 22.3959C167.364 20.563 169.278 19.6465 171.581 19.6465C176.242 19.6465 178.606 22.3627 178.672 27.795V41.6015H175.644C174.146 41.6015 172.932 40.3837 172.932 38.8814V27.9544C172.932 26.7192 172.667 25.8093 172.138 25.2249C171.608 24.6272 170.727 24.3284 169.496 24.3284C167.814 24.3284 166.596 24.9792 165.841 26.2808V38.8814C165.841 40.3837 164.627 41.6015 163.13 41.6015H160.101V13.7201C160.101 12.2178 161.315 11 162.813 11H165.841V22.3959Z" fill="#131313"/>
<path d="M197.113 41.6015C196.095 41.6015 195.137 41.0284 194.942 40.0271C194.919 39.9109 194.899 39.7916 194.88 39.669C193.489 41.223 191.682 42 189.457 42C187.352 42 185.604 41.389 184.214 40.1671C182.837 38.9452 182.148 37.4045 182.148 35.545C182.148 33.2605 182.989 31.5073 184.671 30.2853C186.365 29.0634 188.808 28.4458 192 28.4325H194.641V27.1973C194.641 26.2012 194.383 25.4042 193.867 24.8066C193.363 24.2089 192.562 23.91 191.463 23.91C190.497 23.91 189.735 24.1425 189.179 24.6073C188.279 25.3785 187.405 26.5199 186.221 26.5199H182.625C182.625 25.2714 183.009 24.1159 183.777 23.0533C184.545 21.9908 185.631 21.1607 187.034 20.563C188.438 19.952 190.013 19.6465 191.761 19.6465C194.41 19.6465 196.508 20.3173 198.058 21.6587C199.62 22.9869 200.401 24.8597 200.401 27.277V36.6208C200.414 38.6662 200.699 40.2136 201.255 41.2629V41.6015H197.113ZM190.709 37.597C191.556 37.597 192.337 37.4111 193.052 37.0392C193.767 36.654 194.297 36.1427 194.641 35.5051V31.7995H192.496C189.623 31.7995 188.093 32.7956 187.908 34.7879L187.888 35.1266C187.888 35.8438 188.14 36.4349 188.643 36.8997C189.146 37.3646 189.835 37.597 190.709 37.597Z" fill="#131313"/>
<path d="M216.887 25.4441C216.105 25.3378 215.417 25.2847 214.821 25.2847C212.649 25.2847 211.226 26.0219 210.551 27.4961V38.8814C210.551 40.3837 209.337 41.6015 207.839 41.6015H204.811V22.7651C204.811 21.2628 206.025 20.045 207.522 20.045H210.233L210.392 22.615C211.544 20.636 213.139 19.6465 215.179 19.6465C215.814 19.6465 216.41 19.7329 216.966 19.9055L216.887 25.4441Z" fill="#131313"/>
<path d="M229.161 42C226.01 42 223.441 41.0304 221.455 39.0913C219.482 37.1521 218.496 34.5688 218.496 31.3413V30.7834C218.496 28.6185 218.913 26.6859 219.747 24.9859C220.581 23.2725 221.76 21.9576 223.282 21.0411C224.818 20.1114 226.566 19.6465 228.526 19.6465C231.465 19.6465 233.776 20.5763 235.458 22.4357C237.153 24.2952 238 26.9317 238 30.3451V31.3359C238 32.0871 237.393 32.696 236.644 32.696H224.315C224.5 34.1039 225.057 35.2329 225.984 36.0829C226.924 36.9329 228.109 37.358 229.539 37.358C230.506 37.358 231.38 37.2043 232.163 36.8969C233.74 36.2773 235.762 36.1149 236.89 37.382L237.543 38.115C236.682 39.337 235.517 40.2933 234.047 40.9839C232.578 41.6613 230.949 42 229.161 42ZM228.506 24.3085C227.367 24.3085 226.44 24.6937 225.725 25.464C225.023 26.2344 224.573 27.3368 224.375 28.7712H232.359V28.313C232.333 27.0379 231.988 26.0551 231.326 25.3644C230.664 24.6605 229.724 24.3085 228.506 24.3085Z" fill="#131313"/>
<path d="M150.532 35.2566C150.532 34.8284 150.408 34.4417 150.16 34.0965C149.913 33.7512 149.451 33.4335 148.777 33.1435C148.116 32.8396 147.159 32.5634 145.906 32.3148C144.777 32.0662 143.723 31.7555 142.746 31.3826C141.782 30.9958 140.942 30.5332 140.226 29.9945C139.524 29.4559 138.973 28.8206 138.574 28.0886C138.175 27.3428 137.975 26.4934 137.975 25.5404C137.975 24.6013 138.175 23.7174 138.574 22.8887C138.987 22.06 139.572 21.328 140.329 20.6927C141.1 20.0436 142.037 19.5395 143.138 19.1804C144.254 18.8075 145.507 18.6211 146.897 18.6211C148.839 18.6211 150.505 18.9318 151.895 19.5533C153.3 20.1748 154.374 21.0311 155.117 22.1222C155.582 22.784 155.905 23.5031 156.084 24.2796C156.276 25.1096 155.565 25.8098 154.715 25.8098H150.305C150.305 25.2297 150.181 24.7118 149.933 24.256C149.699 23.7864 149.327 23.4204 148.818 23.158C148.322 22.8818 147.675 22.7437 146.877 22.7437C146.216 22.7437 145.644 22.8611 145.162 23.0959C144.68 23.3168 144.309 23.6207 144.047 24.0074C143.799 24.3803 143.675 24.7946 143.675 25.2504C143.675 25.5957 143.744 25.9064 143.882 26.1827C144.033 26.4451 144.274 26.6868 144.605 26.9077C144.935 27.1287 145.362 27.3359 145.885 27.5292C146.422 27.7088 147.083 27.8745 147.868 28.0265C149.479 28.3579 150.918 28.793 152.184 29.3316C153.451 29.8564 154.456 30.5746 155.2 31.4861C155.943 32.3839 156.315 33.5647 156.315 35.0287C156.315 36.0231 156.095 36.9346 155.654 37.7633C155.214 38.592 154.58 39.3171 153.754 39.9386C152.928 40.5463 151.937 41.0227 150.78 41.368C149.637 41.6995 148.35 41.8652 146.918 41.8652C144.839 41.8652 143.076 41.4923 141.631 40.7465C140.199 40.0007 139.111 39.0547 138.367 37.9083C137.638 36.7482 137.273 35.5604 137.273 34.3451H141.424C142.253 34.3451 142.874 35.0379 143.219 35.7943C143.305 35.9831 143.409 36.1561 143.531 36.3131C143.93 36.8103 144.433 37.1694 145.038 37.3904C145.658 37.6114 146.326 37.7219 147.042 37.7219C147.813 37.7219 148.453 37.6183 148.963 37.4111C149.472 37.1901 149.857 36.9001 150.119 36.541C150.394 36.1681 150.532 35.74 150.532 35.2566Z" fill="#131313"/>
</svg>
